<?xml version="1.0" encoding="UTF-8" standalone="no"?>
<!-- Created with Inkscape (http://www.inkscape.org/) -->

<svg
   xmlns:dc="http://purl.org/dc/elements/1.1/"
   xmlns:cc="http://creativecommons.org/ns#"
   xmlns:rdf="http://www.w3.org/1999/02/22-rdf-syntax-ns#"
   xmlns:svg="http://www.w3.org/2000/svg"
   xmlns="http://www.w3.org/2000/svg"
   xmlns:sodipodi="http://sodipodi.sourceforge.net/DTD/sodipodi-0.dtd"
   xmlns:inkscape="http://www.inkscape.org/namespaces/inkscape"
   width="3000"
   height="3000"
   viewBox="0 0 793.74998 793.75002"
   version="1.1"
   id="svg3542"
   inkscape:export-filename="C:\Users\AMINE\Downloads\mouse.png"
   inkscape:export-xdpi="96"
   inkscape:export-ydpi="96"
   inkscape:version="0.92.4 (5da689c313, 2019-01-14)"
   sodipodi:docname="mouse.svg">
  <defs
     id="defs3536" />
  <sodipodi:namedview
     id="base"
     pagecolor="#ffffff"
     bordercolor="#666666"
     borderopacity="1.0"
     inkscape:pageopacity="0.0"
     inkscape:pageshadow="2"
     inkscape:zoom="0.12374369"
     inkscape:cx="1264.1065"
     inkscape:cy="1238.5386"
     inkscape:document-units="mm"
     inkscape:current-layer="layer1"
     showgrid="false"
     showguides="false"
     inkscape:window-width="1680"
     inkscape:window-height="988"
     inkscape:window-x="-8"
     inkscape:window-y="-8"
     inkscape:window-maximized="1"
     inkscape:snap-global="false"
     units="px" />
  <metadata
     id="metadata3539">
    <rdf:RDF>
      <cc:Work
         rdf:about="">
        <dc:format>image/svg+xml</dc:format>
        <dc:type
           rdf:resource="http://purl.org/dc/dcmitype/StillImage" />
        <dc:title></dc:title>
      </cc:Work>
    </rdf:RDF>
  </metadata>
  <g
     inkscape:label="Layer 1"
     inkscape:groupmode="layer"
     id="layer1"
     transform="translate(0,496.75002)">
    <g
       id="g4294"
       transform="matrix(8.8261913,0,0,8.8261913,-691.54914,-1328.939)">
      <path
         sodipodi:nodetypes="czzzzzzzcc"
         inkscape:connector-curvature="0"
         id="path4102"
         d="m 143.61626,138.76416 c 0,0 -0.0694,-1.7889 0.0554,-3.22541 0.12473,-1.43651 0.68213,-3.16198 0.93544,-4.47676 0.25331,-1.31479 0.33875,-2.94489 0.41237,-3.78567 0.0736,-0.84077 -0.30013,-0.88094 0.18899,-1.22564 0.48912,-0.34469 1.28257,0.1643 1.87089,0.66818 0.58832,0.50387 1.15852,1.43267 1.50577,2.3386 0.34725,0.90594 0.79336,1.84905 1.11296,2.93186 0.3196,1.08282 0.57453,2.05062 0.96648,3.40769 0.68941,2.43398 -0.008,4.36391 -0.0439,6.48939"
         style="fill:#8e96a1;fill-opacity:1;stroke:#000000;stroke-width:0.86500001;stroke-linecap:butt;stroke-linejoin:miter;stroke-miterlimit:4;stroke-dasharray:none;stroke-opacity:1" />
      <path
         style="fill:#000000;stroke:none;stroke-width:0.22679466px;stroke-linecap:butt;stroke-linejoin:miter;stroke-opacity:1"
         d="m 167.76193,156.47565 c 0,0 -1.72686,-1.28521 -5.43654,-1.84125 -3.70969,-0.55604 -6.44753,-0.0148 -6.44753,-0.0148 3.91356,0.36306 7.81658,0.66993 11.88407,1.85606 z"
         id="path4196"
         inkscape:connector-curvature="0"
         sodipodi:nodetypes="czcc" />
      <path
         sodipodi:nodetypes="czcc"
         inkscape:connector-curvature="0"
         id="path4198"
         d="m 167.74339,152.96014 c 0,0 -2.07212,-0.58321 -5.73553,0.2232 -3.66343,0.80641 -6.02704,2.29033 -6.02704,2.29033 3.78486,-1.0595 7.5398,-2.16772 11.76257,-2.51352 z"
         style="fill:#000000;stroke:none;stroke-width:0.22679466px;stroke-linecap:butt;stroke-linejoin:miter;stroke-opacity:1" />
      <path
         sodipodi:nodetypes="czzzzzzzcczzzzc"
         inkscape:connector-curvature="0"
         id="path4184"
         d="m 139.65871,138.78314 c 0,0 5.85061,0.0542 7.46502,0.70871 1.61441,0.65415 2.18802,1.09021 3.73252,2.55134 1.5445,1.46113 3.73937,4.55369 5.29167,6.14212 1.5523,1.58843 2.97963,2.84575 3.87425,3.49628 0.89462,0.65053 1.34693,0.40527 1.98437,1.37016 0.63744,0.96489 1.29081,2.56034 0.33073,3.82701 -0.96008,1.26667 -3.25749,1.49036 -4.39397,1.6064 -1.13648,0.11604 -1.86597,0.11753 -2.83482,0.14174 -2.74147,0.16677 -5.4866,-0.19716 -8.12649,-1.03943 -1.63008,-0.53536 -3.11978,-1.09566 -4.67745,-1.79539 -1.55767,-0.69973 -3.28029,-1.45429 -4.34673,-2.50409 -1.06644,-1.0498 -1.62728,-2.51521 -1.98437,-3.77977 -0.35709,-1.26456 -0.20773,-3.04555 -0.0473,-3.9215 0.16043,-0.87595 0.51972,-1.32292 0.51972,-1.32292"
         style="fill:#8e96a1;fill-opacity:1;stroke:#000000;stroke-width:0.565;stroke-linecap:butt;stroke-linejoin:miter;stroke-miterlimit:4;stroke-dasharray:none;stroke-opacity:1" />
      <path
         style="fill:#000000;stroke:none;stroke-width:0.22679466px;stroke-linecap:butt;stroke-linejoin:miter;stroke-opacity:1"
         d="m 167.79492,148.37811 c 0,0 -2.12891,0.31864 -5.13855,2.5576 -3.00968,2.23895 -4.55597,4.56223 -4.55597,4.56223 3.01651,-2.51958 5.98576,-5.07131 9.69453,-7.11982 z"
         id="path4200"
         inkscape:connector-curvature="0"
         sodipodi:nodetypes="czcc" />
      <ellipse
         ry="3.4962797"
         rx="3.283668"
         cy="155.03612"
         cx="160.28201"
         id="path4186"
         style="opacity:1;fill:#000000;fill-opacity:1;stroke:none;stroke-width:0.13399999;stroke-linecap:square;stroke-linejoin:round;stroke-miterlimit:4;stroke-dasharray:none;stroke-dashoffset:0;stroke-opacity:1;paint-order:stroke fill markers" />
      <ellipse
         style="opacity:0.27700004;fill:#ffffff;fill-opacity:1;stroke:none;stroke-width:0.04372922;stroke-linecap:square;stroke-linejoin:round;stroke-miterlimit:4;stroke-dasharray:none;stroke-dashoffset:0;stroke-opacity:1;paint-order:stroke fill markers"
         id="ellipse4188"
         cx="161.28192"
         cy="154.2787"
         rx="1.0715839"
         ry="1.140967" />
      <path
         sodipodi:nodetypes="czcc"
         inkscape:connector-curvature="0"
         id="path4190"
         d="m 154.9715,155.7258 c 0,0 -1.61307,0.84366 -3.39864,3.46552 -1.78557,2.62185 -2.37845,4.90623 -2.37845,4.90623 1.71342,-2.84803 3.38015,-5.70865 5.77709,-8.37175 z"
         style="fill:#000000;stroke:none;stroke-width:0.19178846px;stroke-linecap:butt;stroke-linejoin:miter;stroke-opacity:1" />
      <path
         sodipodi:nodetypes="czzzzzzczzzzzzzc"
         inkscape:connector-curvature="0"
         id="path4224"
         d="m 99.968922,148.12097 c -0.74158,1.12371 -11.500644,0.70356 -10.874617,-8.86695 0.626027,-9.5705 4.229928,-12.22523 5.012104,-16.0933 0.782176,-3.86807 0.07834,-7.41125 -2.229471,-9.85386 -2.307808,-2.44262 -5.919799,-2.70836 -8.462736,-1.65965 -2.542938,1.0487 -4.323588,3.23193 -3.766931,5.52752 0.556657,2.29558 3.752325,2.92134 5.014173,2.6983 1.261849,-0.22303 2.512484,-1.82394 2.512484,-1.82394 -0.04992,0.42431 -5.129583,0.56243 -5.129226,-1.54238 3.57e-4,-2.10481 2.706085,-2.47546 4.226947,-2.61399 1.520862,-0.13854 3.365119,1.10922 4.421829,3.02904 1.056711,1.91983 0.488373,5.3335 -0.436955,7.83685 -0.925328,2.50334 -2.958754,5.80996 -3.61051,9.11191 -0.651755,3.30194 -1.170487,7.23743 0.168644,10.37163 1.339132,3.1342 4.37748,5.21844 7.167388,6.51512 2.789908,1.29667 8.347895,1.32684 8.347895,1.32684"
         style="fill:#8e96a1;fill-opacity:1;stroke:#000000;stroke-width:0.48270735;stroke-linecap:butt;stroke-linejoin:miter;stroke-miterlimit:4;stroke-dasharray:none;stroke-opacity:1" />
      <path
         sodipodi:nodetypes="czzzzzzzzzzzzzzzzzzzc"
         inkscape:connector-curvature="0"
         id="path4210"
         d="m 126.70057,133.68234 c 0,0 -2.54145,-1.30496 -4.20949,-1.73725 -1.66804,-0.43229 -3.73653,-0.69142 -5.7463,-0.66818 -2.00977,0.0232 -4.14143,0.27019 -6.21401,0.86863 -2.07257,0.59844 -4.57048,1.50696 -6.08038,2.73951 -1.5099,1.23255 -2.13895,2.50447 -2.93997,4.07586 -0.80101,1.57139 -1.45897,3.47159 -1.737248,5.27857 -0.278279,1.80698 -0.208101,3.7366 0.06682,5.41221 0.274918,1.67561 0.916938,3.38143 1.469988,4.54359 0.55304,1.16216 0.88592,1.63052 1.60361,2.47224 0.71769,0.84172 1.37342,1.61296 2.73952,2.47224 1.36609,0.85928 4.15169,1.86936 5.54584,2.27179 1.39415,0.40243 1.48186,0.29256 2.67269,0.46772 1.19084,0.17516 2.55815,0.60455 4.47676,0.53454 1.91861,-0.07 4.78854,-0.83842 6.88219,-1.33634 2.09365,-0.49792 4.38689,-1.49449 5.67948,-1.60362 1.29259,-0.10913 0.70208,0.12278 1.87088,0.20045 1.1688,0.0777 3.59128,0.23784 5.14494,0.13363 1.55366,-0.10421 2.93983,-0.47965 4.14268,-0.66817 1.20285,-0.18852 1.98032,-0.24838 3.0736,-0.46772 1.09328,-0.21934 3.4745,-0.86863 3.4745,-0.86863"
         style="fill:#8e96a1;fill-opacity:1;stroke:#000000;stroke-width:0.66500002;stroke-linecap:butt;stroke-linejoin:miter;stroke-miterlimit:4;stroke-dasharray:none;stroke-opacity:1" />
      <ellipse
         transform="rotate(19.433138)"
         ry="2.8184609"
         rx="2.5113552"
         cy="91.954353"
         cx="185.66425"
         id="path4142"
         style="opacity:1;fill:#000000;fill-opacity:1;stroke:none;stroke-width:0.134;stroke-linecap:square;stroke-linejoin:round;stroke-miterlimit:4;stroke-dasharray:none;stroke-dashoffset:0;stroke-opacity:1;paint-order:stroke fill markers" />
      <ellipse
         transform="rotate(42.308468)"
         ry="0.92131698"
         rx="0.66145831"
         cy="11.675721"
         cx="206.71474"
         id="path4144"
         style="opacity:1;fill:#ffffff;fill-opacity:1;stroke:#ffffff;stroke-width:0.13399999;stroke-linecap:square;stroke-linejoin:round;stroke-miterlimit:4;stroke-dasharray:none;stroke-dashoffset:0;stroke-opacity:1;paint-order:stroke fill markers" />
      <ellipse
         style="opacity:1;fill:#000000;fill-opacity:1;stroke:none;stroke-width:0.134;stroke-linecap:square;stroke-linejoin:round;stroke-miterlimit:4;stroke-dasharray:none;stroke-dashoffset:0;stroke-opacity:1;paint-order:stroke fill markers"
         id="ellipse4169"
         cx="190.76459"
         cy="88.737846"
         rx="2.5113552"
         ry="2.8184609"
         transform="rotate(19.433138)" />
      <ellipse
         style="opacity:1;fill:#ffffff;fill-opacity:1;stroke:#ffffff;stroke-width:0.13399999;stroke-linecap:square;stroke-linejoin:round;stroke-miterlimit:4;stroke-dasharray:none;stroke-dashoffset:0;stroke-opacity:1;paint-order:stroke fill markers"
         id="ellipse4171"
         cx="210.1636"
         cy="6.7295408"
         rx="0.66145831"
         ry="0.92131698"
         transform="rotate(42.308468)" />
      <path
         sodipodi:nodetypes="cczc"
         inkscape:connector-curvature="0"
         id="path4208"
         d="m 149.07233,154.57749 c -1.84964,0.1409 -3.64601,-0.25084 -5.43342,-0.73228 0,0 1.49068,0.90882 2.54967,1.09023 1.05899,0.18141 2.88375,-0.35795 2.88375,-0.35795 z"
         style="fill:#000000;stroke:#000000;stroke-width:0.26458332px;stroke-linecap:round;stroke-linejoin:round;stroke-opacity:1" />
      <path
         sodipodi:nodetypes="czzzzzzczzczzzczzzzzzzzczzc"
         inkscape:connector-curvature="0"
         id="path4216"
         d="m 112.86964,156.02831 c 0,0 -1.25221,1.67715 -1.79538,2.4096 -0.54318,0.73245 -1.55813,1.20992 -1.46466,1.98437 0.0935,0.77445 1.07064,1.08407 1.70089,1.41742 0.63024,0.33335 1.35519,0.47884 1.98437,0.56696 0.62918,0.0881 0.97644,0 1.74815,0 0.7717,0 2.20988,-0.28721 2.88206,0 0.67218,0.28721 1.03944,1.08668 1.03944,1.08668 0,0 -1.28859,-0.40865 -1.41741,0 -0.12882,0.40865 0.48294,0.42093 0.94494,0.77958 0.462,0.35864 0.61421,1.06305 0.61421,1.06305 0,0 -1.0922,-0.47884 -1.55915,-0.51972 -0.46695,-0.0409 -1.06559,-0.0733 -1.22842,0.23624 -0.16283,0.30954 0.005,0.15957 0.33072,0.68509 0.32606,0.52552 0.17516,0.90743 0.14179,0.87406 0,0 -0.92784,-1.07215 -1.34654,-1.44103 -0.41871,-0.36888 -0.83815,-0.68521 -1.32292,-0.94494 -0.48478,-0.25973 -0.98954,-0.40342 -1.55915,-0.51971 -0.56962,-0.11629 -0.8854,-0.19785 -1.53553,-0.33074 -0.65013,-0.1329 -1.60374,-0.25985 -2.36235,-0.35435 -0.75862,-0.0945 -1.53583,0.006 -2.26786,-0.11811 -0.73203,-0.12372 -1.43491,-0.22666 -2.03162,-0.59059 -0.59672,-0.36393 -0.85083,-0.72916 -1.2048,-1.34654 -0.35397,-0.61738 -0.44885,-2.1025 -0.44885,-2.1025 0,0 0.0158,-1.38572 0.18899,-2.03162 0.17319,-0.6459 0.39244,-1.25192 0.56696,-1.93713 0.17453,-0.68521 0.47247,-2.17336 0.47247,-2.17336"
         style="fill:#8e96a1;fill-opacity:1;stroke:#000000;stroke-width:0.565;stroke-linecap:butt;stroke-linejoin:miter;stroke-miterlimit:4;stroke-dasharray:none;stroke-opacity:1" />
      <path
         sodipodi:nodetypes="czzzzzccccczzzzc"
         inkscape:connector-curvature="0"
         id="path4220"
         d="m 133.40091,156.11555 c -0.32182,1.22498 -0.92895,2.36089 -1.1526,2.88986 -0.22366,0.52897 -0.43768,1.02788 -0.3508,1.31963 0.0869,0.29175 0.16395,0.28244 0.53454,0.46773 0.37059,0.18529 1.34322,0.32627 1.73725,0.36749 0.39403,0.0412 0.004,0.24613 0.60136,0 0.59761,-0.24613 2.30936,-0.76835 3.10701,-0.20045 l -1.06908,0.60136 c 1.40465,0.22053 1.74079,1.01983 2.10475,1.80407 -0.72467,-0.3046 -1.39111,-0.86148 -2.23839,-0.63477 0.56841,0.72833 0.95259,1.50002 0.76841,2.40543 -0.54785,-0.66143 -1.81671,-1.55578 -2.77293,-1.73725 -0.95622,-0.18147 -3.26451,-0.38842 -4.47676,-0.63477 -1.21225,-0.24635 -2.00156,-0.39998 -2.83974,-0.73499 -0.83818,-0.33501 -1.08813,-0.36812 -1.90429,-1.40317 -0.81616,-1.03505 -1.26954,-4.74403 -1.26954,-4.74403"
         style="fill:#8e96a1;fill-opacity:1;stroke:#000000;stroke-width:0.565;stroke-linecap:butt;stroke-linejoin:miter;stroke-miterlimit:4;stroke-dasharray:none;stroke-opacity:1" />
      <path
         sodipodi:nodetypes="cccccccc"
         inkscape:connector-curvature="0"
         id="path4222"
         d="m 146.14632,158.35393 c 0.81525,0.28243 1.68213,0.64651 1.85418,1.28624 -0.37101,-0.15737 -0.96921,-0.40162 -1.1693,-0.21716 1.90006,1.36801 1.8577,2.1313 2.00452,2.83974 -0.81295,-0.75438 -1.62589,-1.63177 -2.43884,-1.48669 0.4529,0.66608 0.93476,1.31001 0.65147,2.53906 -0.94629,-1.01881 -1.83599,-1.95998 -3.14041,-2.55576 l -2.90656,-1.40317"
         style="fill:#8e96a1;fill-opacity:1;stroke:#000000;stroke-width:0.565;stroke-linecap:butt;stroke-linejoin:miter;stroke-miterlimit:4;stroke-dasharray:none;stroke-opacity:1" />
      <path
         sodipodi:nodetypes="ccc"
         inkscape:connector-curvature="0"
         id="path4100"
         d="m 141.27501,138.99302 c -3.38446,-8.60916 -8.11919,-10.86749 -10.83517,-11.00927 l 4.87068,12.23958"
         style="fill:#728291;fill-opacity:1;stroke:#000000;stroke-width:0.80000001;stroke-linecap:round;stroke-linejoin:round;stroke-miterlimit:4;stroke-dasharray:none;stroke-opacity:1" />
      <path
         sodipodi:nodetypes="czzzzzc"
         inkscape:connector-curvature="0"
         id="path4098"
         d="m 136.06415,146.22445 c 0.026,0.11686 -5.34206,-3.18906 -6.99962,-6.24871 -1.65755,-3.05966 -2.51768,-6.01013 -2.08551,-8.16098 0.43218,-2.15085 1.19883,-3.33466 2.85627,-3.78252 1.65744,-0.44785 3.79232,1.0902 5.13068,2.14632 1.33835,1.05611 2.03343,2.33495 2.7532,3.76921 0.71976,1.43426 2.26615,5.92127 2.26615,5.92127"
         style="fill:#8e96a1;fill-opacity:1;stroke:#000000;stroke-width:0.80000001;stroke-linecap:round;stroke-linejoin:round;stroke-miterlimit:4;stroke-dasharray:none;stroke-opacity:1" />
      <path
         sodipodi:nodetypes="czcc"
         inkscape:connector-curvature="0"
         id="path4194"
         d="m 152.78546,154.7791 c 0,0 -1.80759,0.21529 -4.40837,2.03141 -2.6008,1.81613 -3.96681,3.74067 -3.96681,3.74067 2.61372,-2.05315 5.18828,-4.13469 8.37518,-5.77208 z"
         style="fill:#000000;stroke:none;stroke-width:0.19178846px;stroke-linecap:butt;stroke-linejoin:miter;stroke-opacity:1" />
      <path
         style="fill:#000000;stroke:none;stroke-width:0.19178846px;stroke-linecap:butt;stroke-linejoin:miter;stroke-opacity:1"
         d="m 154.16154,155.26776 c 0,0 -1.77587,0.40008 -4.17606,2.47406 -2.40021,2.074 -3.56103,4.12883 -3.56103,4.12883 2.38868,-2.3111 4.73549,-4.6464 7.73709,-6.60289 z"
         id="path4192"
         inkscape:connector-curvature="0"
         sodipodi:nodetypes="czcc" />
    </g>
  </g>
</svg>
